<svg width="1746" height="1746" xmlns="http://www.w3.org/2000/svg" xmlns:xlink="http://www.w3.org/1999/xlink" xml:space="preserve" overflow="hidden"><defs><clipPath id="clip0"><rect x="1324" y="370" width="1746" height="1746"/></clipPath></defs><g clip-path="url(#clip0)" transform="translate(-1324 -370)"><path d="M3070 1243C3070 1725.14 2679.14 2116 2197 2116 1714.86 2116 1324 1725.14 1324 1243 1324 760.855 1714.86 370 2197 370 2679.14 370 3070 760.855 3070 1243Z" fill="#B4E5A2" fill-rule="evenodd"/><path d="M1533 1800C1692.53 1989.9 1933.2 2111 2200 2111 2466.8 2111 2707.47 1989.9 2867 1800L1533 1800Z" fill="#8ED973" fill-rule="evenodd"/><path d="M1631 1800 1631 1800 2769 1800 2769 1800C2769 1754.69 2731.89 1719 2687.91 1719L1712.09 1719C1668.11 1719 1631 1756.07 1631 1800Z" fill="#E6E9EE" fill-rule="evenodd"/><path d="M2692 991.799 2692 1719 1708 1719 1708 991.799 2200 677Z" fill="#FFFFFF" fill-rule="evenodd"/><path d="M2797 975.148 2200 593 2200 593 2200 593 2200 593 2200 593 1603 975.148 1603 1059 2200 676.853 2797 1059Z" fill="#FF7058" fill-rule="evenodd"/><path d="M1812 1216 2127 1216 2127 1721 1812 1721Z" fill="#324A5E" fill-rule="evenodd"/><path d="M1838 1243 2100 1243 2100 1469 1838 1469Z" fill="#84DBFF" fill-rule="evenodd"/><path d="M2068.23 1243 1908 1469 2100 1469 2100 1243Z" fill="#54C0EB" fill-rule="evenodd"/><path d="M2168 1216 2633 1216 2633 1565 2168 1565Z" fill="#324A5E" fill-rule="evenodd"/><path d="M2197 1244 2604 1244 2604 1534 2197 1534Z" fill="#84DBFF" fill-rule="evenodd"/><path d="M2465.12 1244 2318 1536 2604 1536 2604 1244Z" fill="#54C0EB" fill-rule="evenodd"/><path d="M2293 937.5C2293 989.139 2251.36 1031 2200 1031 2148.64 1031 2107 989.139 2107 937.5 2107 885.861 2148.64 844 2200 844 2251.36 844 2293 885.861 2293 937.5Z" fill="#E6E9EE" fill-rule="evenodd"/></g></svg>